<svg width="244" height="110" viewBox="0 0 244 110" fill="none" xmlns="http://www.w3.org/2000/svg">
<path d="M22.8282 51.0948C22.8282 51.0948 7.99319 45.1608 2.05919 52.2818C-3.87481 59.4028 3.24619 70.0838 20.4542 66.5228C20.4542 66.5228 22.2342 86.1048 45.3772 88.4788C68.5192 90.8528 74.4532 77.7978 74.4532 77.7978C74.4532 77.7978 77.0592 103.71 108.277 109.248C137.698 114.467 149.815 87.8858 149.815 87.8858C149.815 87.8858 162.47 100.205 183.239 94.8638C204.008 89.5228 206.781 77.2048 206.781 77.2048C206.781 77.2048 236.555 85.7728 242.978 64.1498C249.891 40.8788 215.682 35.0738 215.682 35.0738C215.682 35.0738 216.716 13.1318 194.32 6.59081C177.92 1.80081 167.617 18.4588 167.617 18.4588C167.617 18.4588 154.889 6.49679 137.397 14.0368C122.286 20.5498 121.926 32.6998 121.926 32.6998C121.926 32.6998 119.415 4.6188 89.7452 0.4648C60.0752 -3.6892 52.4992 21.4258 52.4992 21.4258C52.4992 21.4258 24.0152 18.4578 22.8282 51.0948Z" fill="#F5FCFF"/>
<path d="M241.922 66.8233C228.284 78.5563 208.271 71.9433 208.271 71.9433C216.112 68.0223 217.62 55.3553 217.62 55.3553C217.62 55.3553 213.096 64.7043 201.334 67.4193C189.572 70.1333 182.032 59.8793 182.032 59.8793C185.048 69.5303 194.397 72.8483 194.397 72.8483C194.397 72.8483 184.143 84.6103 169.365 86.1183C154.587 87.6263 147.349 80.6893 147.349 80.6893C155.19 77.6733 158.81 70.7363 158.81 70.7363C166.652 69.8313 169.667 63.7993 169.667 63.7993C153.984 70.1323 144.032 62.8943 144.032 62.8943C146.445 67.1163 153.683 69.8313 153.683 69.8313C153.683 69.8313 152.477 74.0533 141.619 76.7683C130.762 79.4823 120.809 73.4503 120.809 73.4503C126.539 80.9903 137.698 83.1013 137.698 83.1013C137.698 83.1013 123.523 97.2763 103.618 93.3553C83.7132 89.4343 80.0942 71.3393 80.0942 71.3393C87.6342 69.8313 93.9682 62.2913 93.9682 62.2913C68.3322 72.2443 54.7612 56.2593 54.7612 56.2593C56.8722 65.9103 62.6022 69.2283 62.6022 69.2283C62.6022 69.2283 54.4592 78.8793 39.6812 75.5613C24.9032 72.2443 23.9982 58.3703 23.9982 58.3703C23.9982 58.3703 17.0612 64.7033 7.71219 61.6873C3.74719 60.4083 1.58319 57.8273 0.39319 55.2793C-1.77681 61.9983 5.54319 69.6083 20.4562 66.5223C20.4562 66.5223 22.2362 86.1043 45.3792 88.4783C68.5212 90.8523 74.4552 77.7973 74.4552 77.7973C74.4552 77.7973 77.0612 103.709 108.279 109.247C137.7 114.466 149.817 87.8853 149.817 87.8853C149.817 87.8853 162.472 100.204 183.241 94.8633C204.01 89.5223 206.783 77.2043 206.783 77.2043C206.783 77.2043 233.883 84.9503 241.922 66.8233Z" fill="#BDE7FF"/>
<path d="M215.682 35.0728C215.682 35.0728 216.716 13.1308 194.32 6.58983C177.92 1.79983 167.617 18.4578 167.617 18.4578C167.617 18.4578 154.889 6.49584 137.397 14.0358C122.286 20.5498 121.926 32.6988 121.926 32.6988C121.926 32.6988 119.415 4.61782 89.7452 0.463823C60.0752 -3.69018 52.4992 21.4248 52.4992 21.4248C52.4992 21.4248 32.1742 19.3098 25.1482 38.3278C28.3102 35.1658 35.3382 28.9218 41.8112 28.6208C50.4952 28.2168 55.1392 31.8518 55.1392 31.8518C55.1392 31.8518 59.9862 15.8978 81.9982 15.8978C104.01 15.8978 108.856 41.7468 108.856 41.7468C108.856 41.7468 116.732 34.4768 126.223 36.6978C135.714 38.9188 137.532 41.7468 137.532 41.7468C137.532 41.7468 136.926 28.6208 148.841 24.7838C160.756 20.9468 167.016 29.0248 167.016 29.0248C167.016 29.0248 160.352 30.8428 157.323 38.3138C157.323 38.3138 170.651 28.8228 182.364 35.0828C182.364 35.0828 177.517 29.2268 172.671 29.0248C172.671 29.0248 177.922 15.8988 190.644 16.9078C203.367 17.9178 211.444 38.9198 211.444 38.9198C211.444 38.9198 221.803 38.2158 232.357 41.1428C224.559 36.5878 215.682 35.0728 215.682 35.0728Z" fill="white"/>
</svg>
